# xmcd
#
# Track frame offsets: 
#        150
#        17760
#        39114
#        55398
#        74834
#        85339
#        103005
#        132646
#        146013
#        156869
#        175154
#        213585
#        238356
#        249485
#        284425
#        296494
#
# Disc length: 4113 seconds
#
# Revision: 2
# Processed by: cddbd v1.5PL3 Copyright (c) Steve Scherf et al.
# Submitted via: ExactAudioCopy v0.95a5
#
DISCID=fc100f10
DTITLE=Various Artist - Funiculi Funicula 20 CD 2
DYEAR=2001
DGENRE=Classical
TTITLE0=The Chris Norman Ensemble - Two Valse Clogs
TTITLE1=L. Plamondon (George Zamfir) - Belle
TTITLE2=Fr. Lehár (T. Stratas and W. Ochman) - Warum Het Jeder Frühling,
TTITLE2=Auch Nur Einem Mai uit "Der Zarewitsch"
TTITLE3=E. Waldteufel (Slovak Philharmonic Orchestra) - Nuée D' Oiseau
TTITLE3=x, Polka Opus 243
TTITLE4=G. Verdi (M. Alvarez) - La Donna È Mobile Uit "Rigoletto"
TTITLE5=G. Donizetti (The CSR Symphony Orchestra) - Mad Scene from "Lu
TTITLE5=cia Di Lammermoor"
TTITLE6=C.M. Von Weber (Slovaakse Filharmonie) - Rondo Allegretto uit 
TTITLE6="Concerto Voor Clarinet En Orkest Nr. 1 In F Opus 73
TTITLE7=A. Vivaldi (The Venice Baroque Orchestra) - Allegro uit "Conce
TTITLE7=rto Voor Viool En Orkest In B RV 376
TTITLE8=T. Albinoni (The London Virtuosi) - Allegro uit "Concerto Voor
TTITLE8=Hobo En Orkest Opus 7 Nr. 4 In G
TTITLE9=W.A. Mozart (The Mito Chamber Orchestra) - Rondo, Tempo Di Men
TTITLE9=uetto uit "Concert Voor Fagot En Orkest In B KV 191
TTITLE10=A. Khachaturian (The St.-Petersburg State Symphony Orchestra)
TTITLE10=Adagio uit "Ballet Partacus"
TTITLE11=A. Dvorák (Slovak Philharmonic Orchestra) - Slavische Dans Op
TTITLE11=us 72 Nr. 2
TTITLE12=Fr. Lehár (The Hungarian Operetta Orchestra) - Liebe, Du Himm
TTITLE12=el Auf Erden uit "Paganini"
TTITLE13=J. Strauss (The London Symphony Orchestra) - Rosen Aus Dem Sü
TTITLE13=den
TTITLE14=Traditional (Charlotte Church) - Amazing Grace
TTITLE15=A. Hasselmans (K. De Vylder) - Etude Mélodique Opus 35
EXTD=
EXTT0=
EXTT1=
EXTT2=
EXTT3=
EXTT4=
EXTT5=
EXTT6=
EXTT7=
EXTT8=
EXTT9=
EXTT10=
EXTT11=
EXTT12=
EXTT13=
EXTT14=
EXTT15=
PLAYORDER=
